<svg xmlns="http://www.w3.org/2000/svg" width="512" height="512" viewBox="0 0 512 512" version="1.1"><path d="M 190.453 37.250 L 186.500 41.500 190.750 37.547 C 193.088 35.373, 195 33.460, 195 33.297 C 195 32.540, 194.129 33.298, 190.453 37.250 M 320.500 37 C 322.648 39.200, 324.631 41, 324.906 41 C 325.181 41, 323.648 39.200, 321.500 37 C 319.352 34.800, 317.369 33, 317.094 33 C 316.819 33, 318.352 34.800, 320.500 37 M 243.264 51.718 C 244.784 51.947, 247.034 51.941, 248.264 51.704 C 249.494 51.467, 248.250 51.279, 245.500 51.286 C 242.750 51.294, 241.744 51.488, 243.264 51.718 M 264.264 51.718 C 265.784 51.947, 268.034 51.941, 269.264 51.704 C 270.494 51.467, 269.250 51.279, 266.500 51.286 C 263.750 51.294, 262.744 51.488, 264.264 51.718 M 246.250 68.716 C 247.762 68.945, 250.238 68.945, 251.750 68.716 C 253.262 68.487, 252.025 68.300, 249 68.300 C 245.975 68.300, 244.738 68.487, 246.250 68.716 M 260.250 68.716 C 261.762 68.945, 264.238 68.945, 265.750 68.716 C 267.262 68.487, 266.025 68.300, 263 68.300 C 259.975 68.300, 258.738 68.487, 260.250 68.716 M 249.750 85.740 C 253.188 85.936, 258.813 85.936, 262.250 85.740 C 265.688 85.545, 262.875 85.385, 256 85.385 C 249.125 85.385, 246.313 85.545, 249.750 85.740 M 249.750 102.740 C 253.188 102.936, 258.813 102.936, 262.250 102.740 C 265.688 102.545, 262.875 102.385, 256 102.385 C 249.125 102.385, 246.313 102.545, 249.750 102.740 M 171 123.775 L 171 130.764 174.750 129.426 C 176.813 128.690, 179.716 128.068, 181.203 128.044 C 183.461 128.007, 184.078 127.382, 184.947 124.250 C 186.294 119.403, 186.267 118.960, 184.669 119.574 C 183.394 120.063, 176.172 118.771, 172.670 117.427 C 171.208 116.866, 171 117.657, 171 123.775 M 337.173 118.060 C 335.894 118.573, 332.858 119.107, 330.428 119.246 C 327.998 119.386, 326.010 119.725, 326.011 120 C 326.011 120.275, 326.480 122.188, 327.053 124.250 C 327.922 127.382, 328.539 128.007, 330.797 128.044 C 332.284 128.068, 335.188 128.690, 337.250 129.426 L 341 130.764 341 123.882 C 341 116.680, 340.920 116.558, 337.173 118.060 M 218.946 264.750 L 215.500 268.500 219.250 265.054 C 222.740 261.846, 223.460 261, 222.696 261 C 222.529 261, 220.842 262.688, 218.946 264.750 M 292 264.500 C 293.866 266.425, 295.617 268, 295.892 268 C 296.167 268, 294.866 266.425, 293 264.500 C 291.134 262.575, 289.383 261, 289.108 261 C 288.833 261, 290.134 262.575, 292 264.500 M 121.462 309.250 L 116.500 314.500 121.750 309.538 C 124.638 306.808, 127 304.446, 127 304.288 C 127 303.541, 126.074 304.372, 121.462 309.250 M 388.958 308.250 C 393.102 312.665, 394 313.459, 394 312.708 C 394 312.548, 391.863 310.410, 389.250 307.958 L 384.500 303.500 388.958 308.250 M 176.750 341.748 C 185.137 341.915, 198.863 341.915, 207.250 341.748 C 215.637 341.581, 208.775 341.444, 192 341.444 C 175.225 341.444, 168.363 341.581, 176.750 341.748 M 239 367 L 239 393 256 393 L 273 393 273 367 L 273 341 256 341 L 239 341 239 367 M 304.750 341.748 C 313.137 341.915, 326.863 341.915, 335.250 341.748 C 343.637 341.581, 336.775 341.444, 320 341.444 C 303.225 341.444, 296.363 341.581, 304.750 341.748 M 245.250 409.746 C 251.162 409.923, 260.837 409.923, 266.750 409.746 C 272.663 409.569, 267.825 409.425, 256 409.425 C 244.175 409.425, 239.338 409.569, 245.250 409.746 M 426.300 419 C 426.300 422.025, 426.487 423.262, 426.716 421.750 C 426.945 420.238, 426.945 417.762, 426.716 416.250 C 426.487 414.738, 426.300 415.975, 426.300 419 M 213.378 461 C 213.378 467.325, 213.541 469.913, 213.739 466.750 C 213.937 463.587, 213.937 458.413, 213.739 455.250 C 213.541 452.087, 213.378 454.675, 213.378 461 M 230.370 461 C 230.370 466.775, 230.535 469.137, 230.737 466.250 C 230.939 463.363, 230.939 458.637, 230.737 455.750 C 230.535 452.863, 230.370 455.225, 230.370 461 M 196.360 461 C 196.360 466.225, 196.529 468.363, 196.735 465.750 C 196.941 463.137, 196.941 458.863, 196.735 456.250 C 196.529 453.637, 196.360 455.775, 196.360 461" stroke="none" fill="#854d44" fill-rule="evenodd"/><path d="M 230 17.936 C 204.491 21.606, 182.624 39.785, 174.632 63.965 C 173.129 68.513, 172.098 72.432, 172.341 72.674 C 172.584 72.917, 175.058 71.715, 177.839 70.004 C 189.179 63.026, 207.110 56.723, 225.264 53.331 C 236.973 51.144, 272.703 50.838, 284 52.828 C 302.834 56.146, 320.548 62.066, 332.396 69.004 C 336.189 71.224, 339.474 72.859, 339.696 72.637 C 339.918 72.415, 338.871 68.513, 337.368 63.965 C 332.024 47.797, 319.538 33.136, 304.436 25.297 C 291.298 18.477, 287.737 17.850, 260 17.475 C 246.525 17.293, 233.025 17.500, 230 17.936 M 243 69.134 C 223.621 70.284, 204.541 75.328, 190 83.146 C 181.633 87.645, 174 93.481, 174 95.380 C 174 96.065, 175.262 97.835, 176.805 99.313 C 180.504 102.857, 184.625 102.787, 191.265 99.067 C 223.521 80.995, 283.769 80.486, 318.744 97.992 C 323.148 100.196, 328.021 102, 329.571 102 C 332.523 102, 338 97.670, 338 95.336 C 338 93.146, 328.132 86.108, 318.590 81.491 C 297.684 71.377, 273.055 67.351, 243 69.134 M 170.350 284.966 C 155.968 289.811, 141.350 295.289, 137.866 297.138 C 126.354 303.249, 113.132 317.620, 107.870 329.743 C 106.735 332.359, 104.081 341.167, 101.974 349.316 L 98.143 364.132 102.821 366.138 C 111.403 369.816, 124.647 372.856, 139.250 374.497 L 145 375.144 145 356.540 C 145 336.239, 145.542 333.568, 150.627 328.814 C 152.207 327.336, 154.767 325.649, 156.315 325.064 C 158.233 324.339, 189.989 324, 256 324 C 322.011 324, 353.767 324.339, 355.685 325.064 C 357.233 325.649, 359.793 327.336, 361.373 328.814 C 366.458 333.568, 367 336.239, 367 356.540 L 367 375.144 372.750 374.497 C 387.353 372.856, 400.597 369.816, 409.179 366.138 L 413.857 364.132 410.017 349.316 C 407.905 341.167, 405.431 332.752, 404.519 330.615 C 399.172 318.088, 385.743 303.286, 374.154 297.144 C 370.670 295.297, 355.860 289.794, 341.241 284.913 L 314.661 276.040 313.194 278.270 C 309.440 283.977, 296.096 295.709, 289.298 299.278 C 269.399 309.724, 242.673 309.769, 222.922 299.389 C 215.559 295.521, 204.007 285.567, 199.927 279.577 C 198.592 277.617, 197.275 276.046, 197 276.085 C 196.725 276.124, 184.733 280.120, 170.350 284.966" stroke="none" fill="#e54151" fill-rule="evenodd"/><path d="M 229.044 104.689 C 224.393 105.515, 216.992 107.385, 212.598 108.845 L 204.608 111.500 203.321 120.414 C 201.705 131.616, 197.468 141.190, 193.135 143.430 C 191.465 144.294, 188.263 145, 186.018 145 C 174.673 145, 167.699 154.715, 172.449 163.901 C 174.589 168.040, 178.218 169.953, 185.236 170.645 C 193.957 171.504, 195.574 173.190, 196.421 182.308 C 199.183 212.025, 219.316 233.655, 248.424 238.181 C 261.986 240.289, 277.134 236.650, 289.289 228.363 C 304.642 217.895, 313.755 201.931, 315.579 182.308 C 316.411 173.354, 318.109 171.489, 326.137 170.713 C 333.137 170.036, 337.511 167.847, 339.483 164.033 C 344.301 154.717, 337.408 145, 325.982 145 C 323.737 145, 320.575 144.315, 318.956 143.477 C 314.003 140.916, 309.573 130.288, 308.174 117.612 L 307.500 111.500 299.375 108.774 C 294.905 107.275, 287.030 105.365, 281.875 104.528 C 269.643 102.545, 240.616 102.633, 229.044 104.689 M 226.073 255.150 C 225.272 257.825, 222.919 261.211, 219.458 264.672 L 214.087 270.043 219.653 275.521 C 239.081 294.641, 272.919 294.641, 292.347 275.521 L 297.913 270.043 292.542 264.672 C 289.081 261.211, 286.728 257.825, 285.927 255.150 C 285.243 252.868, 284.417 251.006, 284.092 251.013 C 283.766 251.020, 280.575 252.006, 277 253.203 C 271.514 255.041, 268.237 255.381, 256 255.381 C 243.763 255.381, 240.486 255.041, 235 253.203 C 231.425 252.006, 228.234 251.020, 227.908 251.013 C 227.583 251.006, 226.757 252.868, 226.073 255.150 M 162 418.500 L 162 495 219.411 495 L 276.822 495 279.411 498.077 C 280.835 499.769, 282 501.794, 282 502.577 C 282 503.689, 283.745 504, 289.981 504 C 297.673 504, 297.985 503.909, 298.593 501.484 C 298.941 500.100, 300.360 498.075, 301.747 496.984 C 304.096 495.137, 305.845 495, 327.135 495 L 350 495 350 418.500 L 350 342 320 342 L 290 342 290 369.614 C 290 395.614, 289.880 397.441, 287.947 400.881 C 286.817 402.890, 284.264 405.652, 282.273 407.017 C 278.737 409.443, 278.161 409.507, 257.257 409.806 C 237.062 410.094, 235.612 409.991, 231.417 407.960 C 228.414 406.506, 226.165 404.432, 224.486 401.566 C 222 397.325, 222 397.322, 222 369.662 L 222 342 192 342 L 162 342 162 418.500 M 93.503 383.250 C 93.264 383.938, 91.469 390.923, 89.515 398.773 C 83.827 421.625, 84.602 429.019, 93.743 439.137 C 98.124 443.987, 103.651 446.887, 115.188 450.389 C 125.664 453.569, 126.749 454.739, 130.970 467.411 C 134.232 477.201, 136.328 479.997, 141.769 481.816 L 145.038 482.909 144.769 460.712 L 144.500 438.514 138 435.253 C 134.425 433.459, 127.900 430.620, 123.500 428.943 C 119.100 427.265, 114.487 424.767, 113.250 423.391 C 108.542 418.154, 112.149 409.800, 119.118 409.800 C 121.966 409.800, 131.108 413.090, 143.750 418.663 C 144.715 419.089, 145 416.149, 145 405.751 L 145 392.288 136.750 391.606 C 125.930 390.711, 110.744 387.586, 102.145 384.484 C 94.175 381.609, 94.078 381.596, 93.503 383.250 M 407.247 385.152 C 398.452 388.224, 378.687 392, 371.401 392 L 367 392 367 405.607 C 367 416.119, 367.284 419.089, 368.250 418.664 C 390.182 409.017, 395.292 408.013, 398.927 412.635 C 401.629 416.069, 401.560 420.266, 398.750 423.391 C 397.512 424.767, 392.900 427.279, 388.500 428.972 C 384.100 430.666, 377.575 433.545, 374 435.370 L 367.500 438.690 367.231 460.845 C 367.083 473.030, 367.174 483, 367.434 483 C 368.762 483, 373.770 480.380, 375.714 478.668 C 376.987 477.547, 379.248 472.760, 381.030 467.411 C 385.241 454.770, 386.286 453.644, 396.776 450.444 C 408.302 446.929, 413.862 444.002, 418.257 439.137 C 423.925 432.863, 425.312 429.393, 425.707 420.500 C 426.006 413.750, 425.461 410.156, 422.219 397.502 C 419.569 387.162, 417.929 382.467, 416.938 382.387 C 416.147 382.322, 411.786 383.567, 407.247 385.152 M 184.163 444.573 C 182.510 445.269, 180.672 446.744, 180.079 447.853 C 178.661 450.502, 178.686 470.216, 180.110 473.343 C 182.342 478.241, 189.616 479.475, 193.479 475.612 C 196.522 472.569, 197.356 468.008, 196.802 457.447 C 196.434 450.433, 195.978 448.606, 194.101 446.607 C 191.279 443.603, 188.044 442.942, 184.163 444.573 M 218.242 444.502 C 213.866 446.393, 213 449.225, 213 461.642 C 213 471.927, 213.063 472.217, 215.923 475.077 C 219.587 478.741, 223.814 478.924, 227.694 475.587 C 230.480 473.190, 230.500 473.088, 230.500 461.109 C 230.500 449.553, 230.395 448.944, 228 446.625 C 224.635 443.368, 222.130 442.823, 218.242 444.502" stroke="none" fill="#f6b283" fill-rule="evenodd"/><path d="M 220.500 1.660 C 205.501 4.867, 191.507 12.479, 179.660 23.874 C 168.237 34.861, 160.315 48.346, 155.792 64.500 C 153.621 72.254, 153.552 73.931, 153.526 119 L 153.500 165.500 155.974 170.500 C 159.485 177.593, 165.827 183.377, 173.169 186.181 L 179.332 188.534 180.646 195.017 C 181.369 198.583, 182.938 204.123, 184.132 207.330 C 188.075 217.916, 198.743 232.544, 206.863 238.500 C 209.566 240.483, 210.961 242.279, 210.976 243.800 C 211.005 246.625, 208.867 250.905, 206.238 253.285 C 205.156 254.264, 189.697 259.952, 171.885 265.924 C 154.073 271.896, 137.861 277.492, 135.857 278.360 C 117.131 286.469, 99.260 304.812, 91.181 324.219 C 86.493 335.482, 68 410.586, 68 418.366 C 68 434.382, 76.110 449.633, 89.377 458.568 C 92.168 460.448, 98.535 463.346, 103.525 465.008 L 112.598 468.031 115.325 476.404 C 119.604 489.543, 125.525 495.262, 139.331 499.589 C 143.667 500.948, 145.907 502.358, 148.071 505.089 C 153.765 512.279, 151.004 512.004, 217.151 511.968 C 279.800 511.935, 278.319 512.043, 280.834 507.321 C 282.474 504.242, 280.288 497.954, 277 496.293 C 275.076 495.320, 261.549 495.026, 218.250 495.015 L 162 495 162 418 L 162 341 192 341 L 222 341 222.022 368.250 C 222.047 398.815, 222.530 401.389, 229.133 406.099 C 232.458 408.470, 232.793 408.500, 256 408.500 C 279.207 408.500, 279.542 408.470, 282.867 406.099 C 289.470 401.389, 289.953 398.815, 289.978 368.250 L 290 341 320 341 L 350 341 350 418 L 350 495 328.047 495 C 314.086 495, 305.207 495.404, 303.657 496.110 C 298.577 498.425, 297.211 505.467, 301.049 509.552 L 303.349 512 328.773 512 C 357.268 512, 358.675 511.723, 363.929 505.089 C 366.093 502.358, 368.333 500.948, 372.669 499.589 C 386.419 495.279, 392.056 489.846, 396.570 476.551 L 399.471 468.008 408.509 464.997 C 413.481 463.341, 419.832 460.448, 422.623 458.568 C 435.817 449.683, 444 434.277, 444 418.322 C 444 410.635, 425.481 335.431, 420.842 324.280 C 412.907 305.207, 395.199 286.707, 377.425 278.922 C 374.716 277.735, 357.927 271.882, 340.115 265.915 C 322.303 259.948, 306.844 254.264, 305.762 253.285 C 301.936 249.822, 298.793 241, 301.386 241 C 303.774 241, 315.456 228.924, 320.249 221.500 C 325.933 212.696, 329.465 204.346, 331.259 195.466 L 332.660 188.537 338.780 186.200 C 346.351 183.309, 352.307 177.711, 355.849 170.155 L 358.500 164.500 358.469 118.500 C 358.439 73.990, 358.366 72.241, 356.203 64.500 C 347.158 32.122, 322.098 8.018, 290.792 1.584 C 280.141 -0.605, 230.843 -0.552, 220.500 1.660 M 224.131 18.541 C 201.520 23.447, 182.544 40.569, 174.450 63.368 C 170.694 73.949, 171.152 74.622, 178.908 69.916 C 191.699 62.155, 211.791 55.599, 231 52.919 C 243.411 51.187, 271.388 51.462, 284.311 53.443 C 302.840 56.283, 320.420 62.227, 333.164 69.960 C 340.456 74.385, 341.101 73.869, 338.436 65.737 C 335.639 57.201, 330.406 47.592, 325.048 41.154 C 316.143 30.453, 301.102 21.399, 287.412 18.499 C 278.038 16.513, 233.341 16.543, 224.131 18.541 M 237.352 68.952 C 213.068 71.756, 189.512 80.476, 176.596 91.444 L 172.692 94.758 174.820 97.747 C 175.990 99.391, 178.336 101.311, 180.032 102.013 C 182.896 103.199, 183.804 102.965, 192.808 98.708 C 212.552 89.374, 229.390 85.996, 256.128 86.006 C 282.585 86.015, 299.272 89.300, 318.211 98.227 C 328.180 102.926, 329.133 103.187, 331.986 102.006 C 333.672 101.307, 336.015 99.383, 337.193 97.729 L 339.335 94.721 335.917 91.836 C 324.233 81.968, 305.694 74.185, 285 70.458 C 274.951 68.649, 247.494 67.781, 237.352 68.952 M 240.500 102.629 C 231.374 103.619, 219.024 106.221, 211.864 108.663 L 204.228 111.267 203.555 117.221 C 202.731 124.503, 199.736 134.359, 196.995 138.810 C 194.607 142.688, 189.728 145, 183.936 145 C 178.413 145, 174.388 147.567, 171.922 152.661 C 167.449 161.901, 174.346 171, 185.823 171 C 193.372 171, 194.979 172.824, 196.077 182.645 C 197.964 199.505, 203.915 211.901, 215.262 222.607 C 238.507 244.539, 273.493 244.539, 296.738 222.607 C 308.085 211.901, 314.036 199.505, 315.923 182.645 C 317.021 172.824, 318.628 171, 326.177 171 C 333.899 171, 339.297 167.325, 341.031 160.885 C 343.198 152.839, 336.816 145, 328.100 145 C 322.273 145, 317.398 142.695, 315.005 138.810 C 312.264 134.359, 309.269 124.503, 308.445 117.221 L 307.772 111.267 300.136 108.666 C 295.936 107.236, 288.675 105.346, 284 104.467 C 275.717 102.910, 248.512 101.761, 240.500 102.629 M 171 123.775 L 171 130.764 174.750 129.426 C 176.813 128.690, 179.716 128.068, 181.203 128.044 C 183.461 128.007, 184.078 127.382, 184.947 124.250 C 186.294 119.403, 186.267 118.960, 184.669 119.574 C 183.394 120.063, 176.172 118.771, 172.670 117.427 C 171.208 116.866, 171 117.657, 171 123.775 M 337.173 118.060 C 335.894 118.573, 332.858 119.107, 330.428 119.246 C 327.998 119.386, 326.010 119.725, 326.011 120 C 326.011 120.275, 326.480 122.188, 327.053 124.250 C 327.922 127.382, 328.539 128.007, 330.797 128.044 C 332.284 128.068, 335.188 128.690, 337.250 129.426 L 341 130.764 341 123.882 C 341 116.680, 340.920 116.558, 337.173 118.060 M 226.082 254.121 C 225.422 256.325, 222.509 260.577, 219.242 264.105 L 213.553 270.250 219.561 275.875 C 230.429 286.051, 240.787 290, 256.605 290 C 271.615 290, 284.367 284.662, 294.404 274.178 L 298.308 270.100 292.688 264.030 C 289.477 260.562, 286.575 256.314, 285.918 254.121 L 284.768 250.282 278.937 252.097 C 268.871 255.230, 257.097 256.334, 247.447 255.050 C 242.742 254.424, 236.269 253.095, 233.063 252.097 L 227.232 250.282 226.082 254.121 M 168.431 285.321 C 152.666 290.667, 138.897 295.962, 135.457 298 C 132.209 299.925, 126.118 304.894, 121.922 309.043 C 112.039 318.814, 106.463 329.723, 101.497 349 C 99.584 356.425, 98.014 363.020, 98.009 363.655 C 97.987 366.477, 123.064 373.433, 137.750 374.679 L 145 375.293 145 356.859 C 145 339.712, 145.157 338.116, 147.250 334.020 C 149.900 328.834, 153.181 326.209, 158.577 324.957 C 163.735 323.761, 348.265 323.761, 353.423 324.957 C 358.819 326.209, 362.100 328.834, 364.750 334.020 C 366.841 338.112, 367 339.718, 367 356.712 L 367 375 370.824 375 C 380.069 375, 407.610 368.515, 412.923 365.086 C 414.122 364.313, 413.771 361.912, 410.692 349.834 C 405.591 329.823, 400.300 319.340, 390.181 309.198 C 385.956 304.964, 379.598 299.820, 376.052 297.767 C 372.095 295.477, 359.149 290.549, 342.551 285.017 C 327.673 280.058, 315.228 276, 314.897 276 C 314.566 276, 312.204 278.662, 309.648 281.915 C 297.607 297.241, 276.736 307, 256 307 C 235.264 307, 214.393 297.241, 202.352 281.915 C 199.796 278.662, 197.209 276.032, 196.602 276.071 C 195.996 276.110, 183.319 280.273, 168.431 285.321 M 239 367 L 239 393 256 393 L 273 393 273 367 L 273 341 256 341 L 239 341 239 367 M 89.199 398.261 C 86.890 407.755, 85 417.123, 85 419.079 C 85 429.053, 91.784 440.410, 100.578 445.157 C 103.285 446.619, 109.411 449.001, 114.192 450.450 C 118.973 451.900, 123.765 453.854, 124.842 454.793 C 125.919 455.732, 128.203 460.798, 129.916 466.050 C 134.157 479.050, 134.890 479.985, 142.750 482.434 L 145 483.135 145 460.776 L 145 438.418 139.250 435.492 C 136.088 433.883, 129 430.736, 123.500 428.499 C 115.572 425.274, 113.222 423.853, 112.160 421.642 C 109.718 416.558, 113.549 410, 118.961 410 C 121.702 410, 134.221 414.542, 140.966 417.983 L 145 420.041 145 406.020 C 145 393.342, 144.833 391.998, 143.250 391.980 C 142.287 391.970, 136.741 391.327, 130.924 390.553 C 119.275 389.002, 111.076 387.073, 100.576 383.413 C 96.767 382.086, 93.595 381, 93.525 381 C 93.456 381, 91.509 388.767, 89.199 398.261 M 414 382.611 C 405.664 386.263, 377.828 392, 368.449 392 C 367.253 392, 367 394.445, 367 406.020 L 367 420.041 371.034 417.983 C 377.779 414.542, 390.298 410, 393.039 410 C 396.098 410, 399.737 413.102, 400.569 416.420 C 401.818 421.397, 398.777 424.489, 388.785 428.403 C 383.678 430.404, 376.800 433.494, 373.500 435.270 L 367.500 438.500 367.231 460.750 C 367.049 475.810, 367.301 483, 368.013 483 C 370.437 483, 375.855 480.045, 377.353 477.906 C 378.242 476.638, 380.379 471.303, 382.103 466.050 C 383.828 460.798, 385.805 455.896, 386.497 455.158 C 387.189 454.420, 392.328 452.315, 397.918 450.480 C 403.507 448.645, 410.076 445.974, 412.515 444.544 C 420.661 439.770, 427 428.626, 427 419.079 C 427 415.204, 418.947 380.975, 418.051 381.039 C 417.748 381.061, 415.925 381.768, 414 382.611 M 182.358 446.369 C 179.782 448.584, 179.577 449.352, 179.188 458.257 C 178.661 470.308, 179.936 474.657, 184.562 476.590 C 188.524 478.246, 191.993 477.276, 194.399 473.841 C 195.638 472.072, 196 468.996, 196 460.232 C 196 449.543, 195.862 448.772, 193.545 446.455 C 190.385 443.294, 185.972 443.260, 182.358 446.369 M 216.635 446.073 C 214.050 448.106, 214 448.373, 214 460.138 C 214 466.735, 214.441 472.955, 214.979 473.961 C 216.327 476.479, 221.480 478.148, 224.437 477.024 C 229.074 475.261, 230 472.467, 230 460.232 C 230 449.543, 229.862 448.772, 227.545 446.455 C 224.509 443.418, 220.201 443.267, 216.635 446.073" stroke="none" fill="#161515" fill-rule="evenodd"/></svg>